<?xml version="1.0" standalone="no"?>
<!DOCTYPE svg PUBLIC "-//W3C//DTD SVG 20010904//EN"
 "http://www.w3.org/TR/2001/REC-SVG-20010904/DTD/svg10.dtd">
<svg version="1.0" xmlns="http://www.w3.org/2000/svg"
     width="40" height="40" viewBox="0 0 510 510"
 preserveAspectRatio="xMidYMid meet">

<g transform="translate(0.000000,512.000000) scale(0.100000,-0.100000)"
fill="currentColor" stroke="none">
<path d="M445 5110 c-194 -40 -352 -179 -417 -368 l-23 -67 0 -2115 0 -2115
23 -66 c57 -166 185 -294 350 -351 l67 -23 2115 0 2115 0 67 23 c165 57 293
185 350 351 l23 66 0 2115 0 2115 -23 67 c-57 163 -178 286 -348 350 l-59 23
-2100 1 c-1155 1 -2118 -2 -2140 -6z m1555 -2550 l0 -2260 -743 0 c-838 0
-805 -3 -882 75 -82 81 -75 -112 -75 2185 0 2298 -7 2104 75 2185 76 76 39 73
878 74 l747 1 0 -2260z m2655 2243 c63 -21 127 -85 148 -148 16 -45 17 -216
17 -2095 0 -2297 7 -2104 -75 -2185 -79 -80 5 -75 -1292 -75 l-1153 0 0 1055
0 1055 842 0 843 0 -127 -127 c-69 -71 -133 -142 -142 -160 -61 -122 75 -258
197 -197 44 22 544 520 568 566 10 21 19 51 19 68 0 17 -9 47 -19 68 -24 46
-524 544 -568 566 -122 61 -258 -75 -197 -197 9 -18 73 -89 142 -159 l127
-128 -843 0 -842 0 0 1055 0 1055 1153 0 c1047 0 1158 -2 1202 -17z"/>
<path d="M678 4499 c-43 -22 -78 -81 -78 -129 0 -50 35 -107 80 -130 37 -19
58 -20 470 -20 412 0 433 1 470 20 45 23 80 80 80 130 0 50 -35 107 -80 130
-38 19 -58 20 -472 20 -411 -1 -435 -2 -470 -21z"/>
<path d="M678 3899 c-43 -22 -78 -81 -78 -129 0 -50 35 -107 80 -130 37 -19
58 -20 470 -20 412 0 433 1 470 20 45 23 80 80 80 130 0 50 -35 107 -80 130
-38 19 -58 20 -472 20 -411 -1 -435 -2 -470 -21z"/>
<path d="M678 3299 c-43 -22 -78 -81 -78 -129 0 -50 35 -107 80 -130 37 -19
58 -20 470 -20 412 0 433 1 470 20 45 23 80 80 80 130 0 50 -35 107 -80 130
-38 19 -58 20 -472 20 -411 -1 -435 -2 -470 -21z"/>
</g>
</svg>
